# xmcd CD database file
#
# Track frame offsets:
#	187
#	35775
#	77862
#	96900
#	125400
#	154725
#
# Disc length: 2492 seconds
#
# Revision: 0
# Processed by: cddbd v1.5.1PL2 Copyright (c) Steve Scherf et al.
# Submitted via: CDex 1.50
#
DISCID=4909ba06
DTITLE=Stan Getz - The Steamer
DYEAR=1956
DGENRE=Jazz
TTITLE0=Blues For Mary Jane
TTITLE1=There'll Never Be Another You
TTITLE2=You're Blase
TTITLE3=Too Close For Comfort
TTITLE4=Like Someone in Love
TTITLE5=How About You
EXTD=YEAR: 1956
EXTT0=
EXTT1=
EXTT2=
EXTT3=
EXTT4=
EXTT5=
PLAYORDER=
